<?xml version="1.0" encoding="UTF-8"?>
<svg xmlns="http://www.w3.org/2000/svg" xmlns:xlink="http://www.w3.org/1999/xlink" width="90px" height="30px" viewBox="0 0 72 30" version="1.1">
<g id="surface1">
<path style=" stroke:none;fill-rule:evenodd;fill:rgb(0%,0%,0%);fill-opacity:1;" d="M 21.125 29.824219 L 13.242188 29.824219 L 13.242188 18.421875 L 8.125 18.421875 L 8.125 29.824219 L 0 29.824219 L 0 0.433594 L 8.125 0.433594 L 8.125 11.367188 L 13.242188 11.367188 L 13.242188 0.433594 L 21.125 0.433594 L 21.125 29.824219 "/>
<path style=" stroke:none;fill-rule:evenodd;fill:rgb(0%,0%,0%);fill-opacity:1;" d="M 57.238281 20.796875 C 60.4375 20.796875 63.03125 18.167969 63.03125 14.925781 C 63.03125 11.683594 60.4375 9.054688 57.238281 9.054688 C 54.039062 9.054688 51.449219 11.683594 51.449219 14.925781 C 51.449219 18.167969 54.039062 20.796875 57.238281 20.796875 Z M 49.871094 14.925781 C 49.871094 10.800781 53.171875 7.457031 57.238281 7.457031 C 61.308594 7.457031 64.609375 10.800781 64.609375 14.925781 C 64.609375 19.050781 61.308594 22.390625 57.238281 22.390625 C 53.171875 22.390625 49.871094 19.050781 49.871094 14.925781 Z M 39.613281 14.925781 C 40.523438 14.808594 42.042969 13.75 42.578125 13.078125 C 42.390625 13.914062 42.375 16.332031 42.597656 17.167969 C 41.984375 16.214844 40.539062 15.042969 39.613281 14.925781 Z M 34.316406 7.019531 C 35.472656 7.019531 36.386719 8.179688 36.386719 9.5 C 36.386719 10.816406 35.472656 11.976562 34.316406 11.976562 L 30.335938 11.976562 L 30.335938 7.019531 Z M 34.300781 18.035156 C 35.457031 18.035156 36.371094 19.191406 36.371094 20.511719 C 36.371094 21.832031 35.457031 22.992188 34.300781 22.992188 L 30.320312 22.992188 L 30.320312 18.035156 Z M 57.234375 29.96875 C 65.34375 29.96875 71.941406 23.136719 71.941406 14.917969 C 71.941406 6.527344 65.34375 0.0078125 57.234375 0 C 49.136719 -0.0078125 44.996094 6.035156 43.972656 8.476562 C 43.984375 4.8125 40.421875 0.492188 36.257812 0.488281 L 22.839844 0.488281 L 22.839844 29.824219 L 35.351562 29.828125 C 40.394531 29.828125 43.984375 25.398438 43.988281 21.597656 C 45.140625 23.988281 49.136719 29.972656 57.234375 29.96875 Z M 57.234375 29.96875 "/>
</g>
</svg>
