<?xml version="1.0" encoding="UTF-8"?>
<svg xmlns="http://www.w3.org/2000/svg" xmlns:xlink="http://www.w3.org/1999/xlink" width="90px" height="30px" viewBox="0 0 110 30" version="1.1">
<g id="surface1">
<path style=" stroke:none;fill-rule:nonzero;fill:rgb(84.705883%,12.156863%,14.901961%);fill-opacity:1;" d="M 15.125 28.039062 C 13.46875 28.332031 11.785156 28.421875 10.042969 28.65625 L 4.730469 12.964844 L 4.730469 29.328125 C 3.078125 29.503906 1.566406 29.738281 0 29.972656 L 0 0 L 4.414062 0 L 10.453125 17.007812 L 10.453125 0 L 15.125 0 Z M 24.269531 10.976562 C 26.070312 10.976562 28.828125 10.886719 30.484375 10.886719 L 30.484375 15.570312 C 28.421875 15.570312 26.011719 15.570312 24.269531 15.660156 L 24.269531 22.625 C 27 22.449219 29.726562 22.214844 32.484375 22.128906 L 32.484375 26.636719 L 19.625 27.660156 L 19.625 0 L 32.484375 0 L 32.484375 4.683594 L 24.269531 4.683594 Z M 49.757812 4.683594 L 44.941406 4.683594 L 44.941406 26.226562 C 43.371094 26.226562 41.804688 26.226562 40.296875 26.285156 L 40.296875 4.683594 L 35.476562 4.683594 L 35.476562 0 L 49.761719 0 Z M 57.308594 10.652344 L 63.664062 10.652344 L 63.664062 15.335938 L 57.308594 15.335938 L 57.308594 25.960938 L 52.75 25.960938 L 52.75 0 L 65.726562 0 L 65.726562 4.683594 L 57.308594 4.683594 Z M 73.273438 21.863281 C 75.917969 21.921875 78.585938 22.128906 81.171875 22.273438 L 81.171875 26.898438 C 77.019531 26.636719 72.867188 26.371094 68.628906 26.285156 L 68.628906 0 L 73.273438 0 Z M 85.089844 27.222656 C 86.570312 27.308594 88.140625 27.398438 89.648438 27.570312 L 89.648438 0 L 85.089844 0 Z M 110 0 L 104.105469 14.253906 L 110 29.972656 C 108.257812 29.738281 106.515625 29.414062 104.773438 29.125 L 101.4375 20.460938 L 98.039062 28.421875 C 96.355469 28.128906 94.730469 28.039062 93.046875 27.804688 L 99.027344 14.078125 L 93.625 0 L 98.621094 0 L 101.667969 7.875 L 104.917969 0 Z M 110 0 "/>
</g>
</svg>
