<?xml version="1.0" encoding="UTF-8"?>
<svg xmlns="http://www.w3.org/2000/svg" xmlns:xlink="http://www.w3.org/1999/xlink" width="90px" height="30px" viewBox="0 0 99 30" version="1.1">
<g id="surface1">
<path style=" stroke:none;fill-rule:nonzero;fill:rgb(11.764706%,84.313726%,37.64706%);fill-opacity:1;" d="M 14.875 0.0507812 C 6.683594 0.0507812 0.0429688 6.746094 0.0429688 15.003906 C 0.0429688 23.261719 6.683594 29.957031 14.875 29.957031 C 23.066406 29.957031 29.707031 23.261719 29.707031 15.003906 C 29.707031 6.746094 23.066406 0.0507812 14.875 0.0507812 Z M 21.675781 21.617188 C 21.410156 22.054688 20.839844 22.195312 20.40625 21.925781 C 16.921875 19.78125 12.539062 19.296875 7.378906 20.484375 C 6.878906 20.597656 6.382812 20.285156 6.269531 19.785156 C 6.15625 19.28125 6.46875 18.78125 6.964844 18.667969 C 12.617188 17.367188 17.460938 17.925781 21.371094 20.335938 C 21.804688 20.605469 21.945312 21.179688 21.675781 21.617188 Z M 23.492188 17.546875 C 23.15625 18.09375 22.445312 18.265625 21.902344 17.929688 C 17.914062 15.460938 11.839844 14.742188 7.125 16.1875 C 6.511719 16.371094 5.867188 16.027344 5.679688 15.410156 C 5.496094 14.792969 5.839844 14.144531 6.453125 13.957031 C 11.835938 12.308594 18.535156 13.105469 23.113281 15.941406 C 23.65625 16.28125 23.828125 17 23.492188 17.546875 Z M 23.648438 13.304688 C 18.867188 10.441406 10.980469 10.179688 6.417969 11.578125 C 5.683594 11.800781 4.910156 11.382812 4.6875 10.644531 C 4.464844 9.90625 4.878906 9.125 5.613281 8.898438 C 10.851562 7.296875 19.5625 7.605469 25.0625 10.898438 C 25.726562 11.292969 25.941406 12.152344 25.550781 12.816406 C 25.160156 13.480469 24.304688 13.699219 23.648438 13.304688 Z M 40.394531 13.855469 C 37.835938 13.238281 37.378906 12.804688 37.378906 11.898438 C 37.378906 11.039062 38.179688 10.464844 39.371094 10.464844 C 40.527344 10.464844 41.671875 10.902344 42.871094 11.804688 C 42.90625 11.832031 42.953125 11.84375 42.996094 11.835938 C 43.042969 11.828125 43.082031 11.804688 43.109375 11.765625 L 44.359375 9.988281 C 44.410156 9.914062 44.394531 9.816406 44.328125 9.757812 C 42.898438 8.601562 41.289062 8.042969 39.410156 8.042969 C 36.644531 8.042969 34.710938 9.714844 34.710938 12.109375 C 34.710938 14.675781 36.378906 15.582031 39.257812 16.285156 C 41.707031 16.855469 42.121094 17.332031 42.121094 18.183594 C 42.121094 19.128906 41.285156 19.714844 39.941406 19.714844 C 38.445312 19.714844 37.226562 19.207031 35.863281 18.015625 C 35.828125 17.988281 35.78125 17.972656 35.738281 17.976562 C 35.691406 17.980469 35.652344 18 35.625 18.035156 L 34.222656 19.71875 C 34.164062 19.789062 34.171875 19.890625 34.238281 19.953125 C 35.824219 21.382812 37.777344 22.136719 39.882812 22.136719 C 42.863281 22.136719 44.789062 20.492188 44.789062 17.953125 C 44.792969 15.808594 43.519531 14.621094 40.402344 13.855469 Z M 51.527344 11.308594 C 50.238281 11.308594 49.175781 11.820312 48.304688 12.871094 L 48.304688 11.6875 C 48.304688 11.59375 48.226562 11.519531 48.136719 11.519531 L 45.84375 11.519531 C 45.75 11.519531 45.675781 11.59375 45.675781 11.6875 L 45.675781 24.832031 C 45.675781 24.925781 45.75 25 45.84375 25 L 48.136719 25 C 48.226562 25 48.304688 24.925781 48.304688 24.832031 L 48.304688 20.683594 C 49.175781 21.671875 50.238281 22.15625 51.527344 22.15625 C 53.925781 22.15625 56.355469 20.292969 56.355469 16.730469 C 56.359375 13.171875 53.929688 11.308594 51.53125 11.308594 Z M 53.691406 16.730469 C 53.691406 18.542969 52.582031 19.808594 50.996094 19.808594 C 49.429688 19.808594 48.246094 18.488281 48.246094 16.730469 C 48.246094 14.976562 49.429688 13.652344 50.996094 13.652344 C 52.558594 13.652344 53.691406 14.949219 53.691406 16.730469 Z M 62.582031 11.308594 C 59.492188 11.308594 57.070312 13.707031 57.070312 16.769531 C 57.070312 19.800781 59.476562 22.175781 62.546875 22.175781 C 65.644531 22.175781 68.074219 19.785156 68.074219 16.730469 C 68.074219 13.691406 65.664062 11.308594 62.582031 11.308594 Z M 62.582031 19.828125 C 60.9375 19.828125 59.699219 18.496094 59.699219 16.730469 C 59.699219 14.957031 60.898438 13.671875 62.546875 13.671875 C 64.199219 13.671875 65.445312 15.003906 65.445312 16.769531 C 65.445312 18.542969 64.242188 19.828125 62.582031 19.828125 Z M 74.671875 11.519531 L 72.148438 11.519531 L 72.148438 8.917969 C 72.148438 8.824219 72.074219 8.75 71.984375 8.75 L 69.691406 8.75 C 69.597656 8.75 69.519531 8.824219 69.519531 8.917969 L 69.519531 11.519531 L 68.417969 11.519531 C 68.328125 11.519531 68.253906 11.59375 68.253906 11.6875 L 68.253906 13.675781 C 68.253906 13.769531 68.328125 13.84375 68.417969 13.84375 L 69.519531 13.84375 L 69.519531 18.988281 C 69.519531 21.0625 70.546875 22.117188 72.570312 22.117188 C 73.394531 22.117188 74.074219 21.945312 74.71875 21.578125 C 74.769531 21.550781 74.800781 21.492188 74.800781 21.429688 L 74.800781 19.539062 C 74.800781 19.480469 74.773438 19.425781 74.722656 19.394531 C 74.671875 19.363281 74.609375 19.363281 74.558594 19.390625 C 74.117188 19.613281 73.691406 19.714844 73.214844 19.714844 C 72.480469 19.714844 72.148438 19.378906 72.148438 18.625 L 72.148438 13.847656 L 74.671875 13.847656 C 74.765625 13.847656 74.839844 13.769531 74.839844 13.675781 L 74.839844 11.691406 C 74.84375 11.597656 74.769531 11.519531 74.675781 11.519531 Z M 83.464844 11.527344 L 83.464844 11.210938 C 83.464844 10.269531 83.824219 9.851562 84.621094 9.851562 C 85.101562 9.851562 85.484375 9.945312 85.914062 10.089844 C 85.96875 10.109375 86.023438 10.101562 86.066406 10.066406 C 86.109375 10.035156 86.136719 9.984375 86.136719 9.929688 L 86.136719 7.980469 C 86.136719 7.90625 86.089844 7.839844 86.015625 7.820312 C 85.5625 7.683594 84.980469 7.542969 84.109375 7.542969 C 81.996094 7.542969 80.875 8.746094 80.875 11.019531 L 80.875 11.507812 L 79.773438 11.507812 C 79.679688 11.507812 79.605469 11.585938 79.605469 11.679688 L 79.605469 13.675781 C 79.605469 13.769531 79.679688 13.84375 79.773438 13.84375 L 80.875 13.84375 L 80.875 21.773438 C 80.875 21.867188 80.949219 21.945312 81.042969 21.945312 L 83.332031 21.945312 C 83.425781 21.945312 83.5 21.867188 83.5 21.773438 L 83.5 13.84375 L 85.644531 13.84375 L 88.921875 21.773438 C 88.550781 22.605469 88.183594 22.773438 87.683594 22.773438 C 87.28125 22.773438 86.855469 22.652344 86.421875 22.410156 C 86.378906 22.390625 86.332031 22.386719 86.289062 22.398438 C 86.242188 22.414062 86.207031 22.445312 86.1875 22.488281 L 85.410156 24.207031 C 85.375 24.289062 85.40625 24.386719 85.484375 24.429688 C 86.292969 24.871094 87.027344 25.058594 87.929688 25.058594 C 89.625 25.058594 90.5625 24.265625 91.382812 22.125 L 95.363281 11.761719 C 95.382812 11.707031 95.375 11.648438 95.34375 11.601562 C 95.316406 11.558594 95.261719 11.53125 95.207031 11.53125 L 92.820312 11.53125 C 92.75 11.53125 92.683594 11.574219 92.660156 11.644531 L 90.214844 18.683594 L 87.539062 11.640625 C 87.511719 11.574219 87.453125 11.53125 87.382812 11.53125 L 83.464844 11.53125 Z M 78.367188 11.519531 L 76.074219 11.519531 C 75.980469 11.519531 75.90625 11.59375 75.90625 11.6875 L 75.90625 21.773438 C 75.90625 21.867188 75.980469 21.945312 76.074219 21.945312 L 78.367188 21.945312 C 78.460938 21.945312 78.535156 21.867188 78.535156 21.773438 L 78.535156 11.6875 C 78.535156 11.597656 78.460938 11.519531 78.367188 11.519531 Z M 77.234375 6.925781 C 76.324219 6.925781 75.589844 7.667969 75.589844 8.582031 C 75.589844 9.5 76.324219 10.242188 77.234375 10.242188 C 78.144531 10.242188 78.878906 9.5 78.878906 8.582031 C 78.878906 7.667969 78.140625 6.925781 77.234375 6.925781 Z M 97.320312 14.761719 C 96.414062 14.761719 95.707031 14.027344 95.707031 13.136719 C 95.707031 12.242188 96.421875 11.5 97.328125 11.5 C 98.238281 11.5 98.941406 12.234375 98.941406 13.125 C 98.941406 14.019531 98.226562 14.761719 97.320312 14.761719 Z M 97.328125 11.660156 C 96.503906 11.660156 95.878906 12.324219 95.878906 13.136719 C 95.878906 13.945312 96.5 14.597656 97.320312 14.597656 C 98.148438 14.597656 98.773438 13.9375 98.773438 13.125 C 98.773438 12.316406 98.152344 11.660156 97.328125 11.660156 Z M 97.6875 13.292969 L 98.144531 13.9375 L 97.757812 13.9375 L 97.347656 13.347656 L 96.996094 13.347656 L 96.996094 13.9375 L 96.671875 13.9375 L 96.671875 12.230469 L 97.425781 12.230469 C 97.824219 12.230469 98.082031 12.433594 98.082031 12.773438 C 98.082031 13.054688 97.921875 13.226562 97.6875 13.292969 Z M 97.414062 12.523438 L 96.996094 12.523438 L 96.996094 13.0625 L 97.414062 13.0625 C 97.625 13.0625 97.75 12.960938 97.75 12.792969 C 97.75 12.617188 97.625 12.523438 97.414062 12.523438 Z M 97.414062 12.523438 "/>
</g>
</svg>
